<svg xmlns="http://www.w3.org/2000/svg" viewBox="0 0 211.85 130.21"><defs><style>.cls-1{fill:#ffdf30;}.cls-2{fill:#f0c735;}.cls-3{fill:#aecb4b;}.cls-4{fill:#5392d4;}.cls-5{fill:#ff2b00;}</style></defs><g id="Layer_2" data-name="Layer 2"><g id="Background_Simple" data-name="Background Simple"><path class="cls-1" d="M38,116.6,1.27,122.29A102.55,102.55,0,0,1,.64,94.68l36.93,4a69.56,69.56,0,0,0-.39,7.4A68.83,68.83,0,0,0,38,116.6Z"/><path class="cls-2" d="M46.48,71.55a68.35,68.35,0,0,0-8.91,27.13l-36.93-4A101.91,101.91,0,0,1,14.37,52.87Z"/><path class="cls-3" d="M79.21,42.77A69,69,0,0,0,46.48,71.55L14.37,52.87c12.23-21,28-34.9,50.44-44.33Z"/><path class="cls-4" d="M150.87,10.32,135.06,43.94a68.84,68.84,0,0,0-55.85-1.17L64.81,8.54C93.25-3.43,123-2.81,150.87,10.32Z"/><path class="cls-5" d="M208.87,130.21l-36.17-8.47a68.73,68.73,0,0,0-37.64-77.8l15.81-33.62C197.2,32.11,220.55,80.37,208.87,130.21Z"/></g></g></svg>